<svg xmlns="http://www.w3.org/2000/svg" viewBox="0 0 1200 630">
  <defs>
    <linearGradient id="bg" x1="0" y1="0" x2="0" y2="1">
      <stop offset="0%" stop-color="#ECFDF5"/>
      <stop offset="100%" stop-color="#A7F3D0"/>
    </linearGradient>
    <linearGradient id="bamboo" x1="0" y1="0" x2="1" y2="0">
      <stop offset="0%" stop-color="#065F46"/>
      <stop offset="50%" stop-color="#059669"/>
      <stop offset="100%" stop-color="#065F46"/>
    </linearGradient>
  </defs>
  <!-- Background -->
  <rect width="1200" height="630" fill="url(#bg)"/>
  <!-- Ground -->
  <ellipse cx="600" cy="540" rx="400" ry="40" fill="#059669" opacity="0.2"/>
  <rect x="200" y="520" width="800" height="110" rx="8" fill="#065F46" opacity="0.15"/>
  <!-- Soil mound -->
  <ellipse cx="600" cy="530" rx="350" ry="30" fill="#065F46" opacity="0.25"/>
  <!-- A-frame trellis left pole -->
  <rect x="290" y="140" width="18" height="400" rx="9" fill="url(#bamboo)" transform="rotate(-12, 300, 530)"/>
  <!-- A-frame trellis right pole -->
  <rect x="892" y="140" width="18" height="400" rx="9" fill="url(#bamboo)" transform="rotate(12, 900, 530)"/>
  <!-- Bamboo nodes on left pole -->
  <rect x="282" y="220" width="26" height="6" rx="3" fill="#047857" transform="rotate(-12, 300, 530)" opacity="0.6"/>
  <rect x="282" y="310" width="26" height="6" rx="3" fill="#047857" transform="rotate(-12, 300, 530)" opacity="0.6"/>
  <rect x="282" y="400" width="26" height="6" rx="3" fill="#047857" transform="rotate(-12, 300, 530)" opacity="0.6"/>
  <!-- Bamboo nodes on right pole -->
  <rect x="884" y="220" width="26" height="6" rx="3" fill="#047857" transform="rotate(12, 900, 530)" opacity="0.6"/>
  <rect x="884" y="310" width="26" height="6" rx="3" fill="#047857" transform="rotate(12, 900, 530)" opacity="0.6"/>
  <rect x="884" y="400" width="26" height="6" rx="3" fill="#047857" transform="rotate(12, 900, 530)" opacity="0.6"/>
  <!-- Cross bars -->
  <rect x="340" y="230" width="520" height="12" rx="6" fill="#059669"/>
  <rect x="380" y="330" width="440" height="12" rx="6" fill="#059669"/>
  <rect x="420" y="430" width="360" height="12" rx="6" fill="#059669"/>
  <!-- Top joint -->
  <circle cx="600" cy="145" r="18" fill="#065F46"/>
  <circle cx="600" cy="145" r="12" fill="#047857"/>
  <!-- Climbing vines on left -->
  <path d="M350 500 C340 450, 360 420, 345 380 C330 340, 370 310, 350 270 C335 240, 360 210, 355 180" stroke="#059669" stroke-width="3" fill="none"/>
  <path d="M380 490 C370 440, 400 410, 385 370 C365 330, 400 300, 390 260" stroke="#059669" stroke-width="3" fill="none"/>
  <!-- Leaves on left vine -->
  <ellipse cx="340" cy="380" rx="18" ry="10" fill="#6EE7B7" transform="rotate(-30, 340, 380)"/>
  <ellipse cx="355" cy="350" rx="16" ry="9" fill="#34D399" transform="rotate(20, 355, 350)"/>
  <ellipse cx="335" cy="280" rx="18" ry="10" fill="#6EE7B7" transform="rotate(-40, 335, 280)"/>
  <ellipse cx="360" cy="250" rx="15" ry="8" fill="#34D399" transform="rotate(25, 360, 250)"/>
  <ellipse cx="350" cy="200" rx="17" ry="9" fill="#6EE7B7" transform="rotate(-20, 350, 200)"/>
  <ellipse cx="370" cy="310" rx="14" ry="8" fill="#A7F3D0" transform="rotate(35, 370, 310)"/>
  <ellipse cx="345" cy="440" rx="16" ry="9" fill="#34D399" transform="rotate(-25, 345, 440)"/>
  <ellipse cx="375" cy="420" rx="14" ry="8" fill="#6EE7B7" transform="rotate(15, 375, 420)"/>
  <!-- Climbing vines on right -->
  <path d="M850 500 C860 450, 840 420, 855 380 C870 340, 830 310, 850 270 C865 240, 840 210, 845 180" stroke="#059669" stroke-width="3" fill="none"/>
  <path d="M820 490 C830 440, 800 410, 815 370 C835 330, 800 300, 810 260" stroke="#059669" stroke-width="3" fill="none"/>
  <!-- Leaves on right vine -->
  <ellipse cx="860" cy="380" rx="18" ry="10" fill="#6EE7B7" transform="rotate(30, 860, 380)"/>
  <ellipse cx="845" cy="350" rx="16" ry="9" fill="#34D399" transform="rotate(-20, 845, 350)"/>
  <ellipse cx="865" cy="280" rx="18" ry="10" fill="#6EE7B7" transform="rotate(40, 865, 280)"/>
  <ellipse cx="840" cy="250" rx="15" ry="8" fill="#34D399" transform="rotate(-25, 840, 250)"/>
  <ellipse cx="850" cy="200" rx="17" ry="9" fill="#6EE7B7" transform="rotate(20, 850, 200)"/>
  <ellipse cx="830" cy="310" rx="14" ry="8" fill="#A7F3D0" transform="rotate(-35, 830, 310)"/>
  <ellipse cx="855" cy="440" rx="16" ry="9" fill="#34D399" transform="rotate(25, 855, 440)"/>
  <ellipse cx="825" cy="420" rx="14" ry="8" fill="#6EE7B7" transform="rotate(-15, 825, 420)"/>
  <!-- Center vine tendrils -->
  <path d="M500 430 C510 400, 530 410, 520 380 C510 350, 540 340, 530 310" stroke="#34D399" stroke-width="2" fill="none"/>
  <path d="M700 430 C690 400, 670 410, 680 380 C690 350, 660 340, 670 310" stroke="#34D399" stroke-width="2" fill="none"/>
  <ellipse cx="520" cy="380" rx="12" ry="7" fill="#6EE7B7" transform="rotate(-15, 520, 380)"/>
  <ellipse cx="530" cy="330" rx="11" ry="6" fill="#A7F3D0" transform="rotate(20, 530, 330)"/>
  <ellipse cx="680" cy="380" rx="12" ry="7" fill="#6EE7B7" transform="rotate(15, 680, 380)"/>
  <ellipse cx="670" cy="330" rx="11" ry="6" fill="#A7F3D0" transform="rotate(-20, 670, 330)"/>
  <!-- Small flowers -->
  <circle cx="340" cy="270" r="5" fill="#FCD34D" opacity="0.8"/>
  <circle cx="860" cy="270" r="5" fill="#FCD34D" opacity="0.8"/>
  <circle cx="520" cy="370" r="4" fill="#FCD34D" opacity="0.7"/>
  <circle cx="680" cy="370" r="4" fill="#FCD34D" opacity="0.7"/>
  <!-- Small decorative plants at base -->
  <ellipse cx="450" cy="525" rx="20" ry="12" fill="#34D399" opacity="0.6"/>
  <ellipse cx="480" cy="520" rx="16" ry="10" fill="#6EE7B7" opacity="0.5"/>
  <ellipse cx="720" cy="525" rx="20" ry="12" fill="#34D399" opacity="0.6"/>
  <ellipse cx="750" cy="520" rx="16" ry="10" fill="#6EE7B7" opacity="0.5"/>
</svg>